<mxfile host="app.diagrams.net" agent="Mozilla/5.0 (X11; Linux x86_64) AppleWebKit/537.36 (KHTML, like Gecko) Chrome/129.0.0.0 Safari/537.36" version="24.7.17">
  <diagram id="C5RBs43oDa-KdzZeNtuy" name="Page-1">
    <mxGraphModel dx="714" dy="1999" grid="1" gridSize="10" guides="1" tooltips="1" connect="1" arrows="1" fold="1" page="1" pageScale="1" pageWidth="827" pageHeight="1169" math="0" shadow="0">
      <root>
        <mxCell id="WIyWlLk6GJQsqaUBKTNV-0" />
        <mxCell id="WIyWlLk6GJQsqaUBKTNV-1" parent="WIyWlLk6GJQsqaUBKTNV-0" />
        <mxCell id="WCrjE4zs8tKZNm7IgE43-0" value="Personagem" style="swimlane;fontStyle=1;align=center;verticalAlign=top;childLayout=stackLayout;horizontal=1;startSize=26;horizontalStack=0;resizeParent=1;resizeParentMax=0;resizeLast=0;collapsible=1;marginBottom=0;whiteSpace=wrap;html=1;" parent="WIyWlLk6GJQsqaUBKTNV-1" vertex="1">
          <mxGeometry x="380" y="220" width="240" height="230" as="geometry" />
        </mxCell>
        <mxCell id="WCrjE4zs8tKZNm7IgE43-1" value="- personagem: str&lt;div&gt;- classe: str&lt;br&gt;&lt;div&gt;- hp: float&lt;/div&gt;&lt;div&gt;- item: str&lt;/div&gt;&lt;/div&gt;" style="text;strokeColor=none;fillColor=none;align=left;verticalAlign=top;spacingLeft=4;spacingRight=4;overflow=hidden;rotatable=0;points=[[0,0.5],[1,0.5]];portConstraint=eastwest;whiteSpace=wrap;html=1;" parent="WCrjE4zs8tKZNm7IgE43-0" vertex="1">
          <mxGeometry y="26" width="240" height="64" as="geometry" />
        </mxCell>
        <mxCell id="WCrjE4zs8tKZNm7IgE43-2" value="" style="line;strokeWidth=1;fillColor=none;align=left;verticalAlign=middle;spacingTop=-1;spacingLeft=3;spacingRight=3;rotatable=0;labelPosition=right;points=[];portConstraint=eastwest;strokeColor=inherit;" parent="WCrjE4zs8tKZNm7IgE43-0" vertex="1">
          <mxGeometry y="90" width="240" height="8" as="geometry" />
        </mxCell>
        <mxCell id="WCrjE4zs8tKZNm7IgE43-3" value="+ personagem(): str&lt;div&gt;+ personagem(str)&lt;/div&gt;&lt;div&gt;+ classe(): str&lt;div&gt;+ classe(str)&lt;/div&gt;&lt;/div&gt;&lt;div&gt;+                       hp(): float&lt;div&gt;+             hp(float)&lt;/div&gt;&lt;/div&gt;&lt;div&gt;+     item(): str&lt;div&gt;+   item(str)&lt;/div&gt;&lt;/div&gt;" style="text;strokeColor=none;fillColor=none;align=left;verticalAlign=top;spacingLeft=4;spacingRight=4;overflow=hidden;rotatable=0;points=[[0,0.5],[1,0.5]];portConstraint=eastwest;whiteSpace=wrap;html=1;" parent="WCrjE4zs8tKZNm7IgE43-0" vertex="1">
          <mxGeometry y="98" width="240" height="132" as="geometry" />
        </mxCell>
        <mxCell id="WCrjE4zs8tKZNm7IgE43-4" value="Jogador" style="swimlane;fontStyle=1;align=center;verticalAlign=top;childLayout=stackLayout;horizontal=1;startSize=26;horizontalStack=0;resizeParent=1;resizeParentMax=0;resizeLast=0;collapsible=1;marginBottom=0;whiteSpace=wrap;html=1;" parent="WIyWlLk6GJQsqaUBKTNV-1" vertex="1">
          <mxGeometry x="1290" y="170" width="160" height="270" as="geometry" />
        </mxCell>
        <mxCell id="WCrjE4zs8tKZNm7IgE43-5" value="- nome: str&lt;div&gt;- batalhas: []&lt;/div&gt;&lt;div&gt;- vitorias: int&lt;/div&gt;&lt;div&gt;- parties: []&lt;/div&gt;" style="text;strokeColor=none;fillColor=none;align=left;verticalAlign=top;spacingLeft=4;spacingRight=4;overflow=hidden;rotatable=0;points=[[0,0.5],[1,0.5]];portConstraint=eastwest;whiteSpace=wrap;html=1;" parent="WCrjE4zs8tKZNm7IgE43-4" vertex="1">
          <mxGeometry y="26" width="160" height="74" as="geometry" />
        </mxCell>
        <mxCell id="WCrjE4zs8tKZNm7IgE43-6" value="" style="line;strokeWidth=1;fillColor=none;align=left;verticalAlign=middle;spacingTop=-1;spacingLeft=3;spacingRight=3;rotatable=0;labelPosition=right;points=[];portConstraint=eastwest;strokeColor=inherit;" parent="WCrjE4zs8tKZNm7IgE43-4" vertex="1">
          <mxGeometry y="100" width="160" height="8" as="geometry" />
        </mxCell>
        <mxCell id="WCrjE4zs8tKZNm7IgE43-7" value="&lt;div&gt;+ &amp;lt;&amp;lt;create&amp;gt;&amp;gt;&lt;/div&gt;&lt;div&gt;&lt;span style=&quot;background-color: initial;&quot;&gt;__init__(nome)&lt;/span&gt;&lt;/div&gt;&lt;div&gt;+ nome(): str&lt;/div&gt;&lt;div&gt;+ nome(str)&lt;/div&gt;+ add_batalha(Batalha)&lt;div&gt;+ remove_batalha(Batalha)&lt;/div&gt;&lt;div&gt;+ batalhas(): []&lt;/div&gt;&lt;div&gt;+ vitorias(): int&lt;/div&gt;&lt;div&gt;+ parties(): []&lt;/div&gt;&lt;div&gt;+ parties(Party)&lt;/div&gt;&lt;div&gt;&lt;br&gt;&lt;/div&gt;&lt;div&gt;&lt;br&gt;&lt;/div&gt;" style="text;strokeColor=none;fillColor=none;align=left;verticalAlign=top;spacingLeft=4;spacingRight=4;overflow=hidden;rotatable=0;points=[[0,0.5],[1,0.5]];portConstraint=eastwest;whiteSpace=wrap;html=1;" parent="WCrjE4zs8tKZNm7IgE43-4" vertex="1">
          <mxGeometry y="108" width="160" height="162" as="geometry" />
        </mxCell>
        <mxCell id="WCrjE4zs8tKZNm7IgE43-8" value="party" style="swimlane;fontStyle=1;align=center;verticalAlign=top;childLayout=stackLayout;horizontal=1;startSize=26;horizontalStack=0;resizeParent=1;resizeParentMax=0;resizeLast=0;collapsible=1;marginBottom=0;whiteSpace=wrap;html=1;" parent="WIyWlLk6GJQsqaUBKTNV-1" vertex="1">
          <mxGeometry x="860" y="190" width="210" height="270" as="geometry" />
        </mxCell>
        <mxCell id="WCrjE4zs8tKZNm7IgE43-9" value="- nome: str&lt;div&gt;- personagens: []&lt;/div&gt;" style="text;strokeColor=none;fillColor=none;align=left;verticalAlign=top;spacingLeft=4;spacingRight=4;overflow=hidden;rotatable=0;points=[[0,0.5],[1,0.5]];portConstraint=eastwest;whiteSpace=wrap;html=1;" parent="WCrjE4zs8tKZNm7IgE43-8" vertex="1">
          <mxGeometry y="26" width="210" height="64" as="geometry" />
        </mxCell>
        <mxCell id="WCrjE4zs8tKZNm7IgE43-10" value="" style="line;strokeWidth=1;fillColor=none;align=left;verticalAlign=middle;spacingTop=-1;spacingLeft=3;spacingRight=3;rotatable=0;labelPosition=right;points=[];portConstraint=eastwest;strokeColor=inherit;" parent="WCrjE4zs8tKZNm7IgE43-8" vertex="1">
          <mxGeometry y="90" width="210" height="8" as="geometry" />
        </mxCell>
        <mxCell id="WCrjE4zs8tKZNm7IgE43-11" value="&lt;div&gt;+ &amp;lt;&amp;lt;create&amp;gt;&amp;gt;&lt;/div&gt;&lt;div&gt;&lt;span style=&quot;background-color: initial;&quot;&gt;__init__(nome, char1, char2, char3, char4)&lt;/span&gt;&lt;/div&gt;&lt;div&gt;+ nome(): str&lt;/div&gt;&lt;div&gt;+ nome(str)&lt;/div&gt;&lt;div&gt;+ personagens(): []&lt;/div&gt;&lt;div&gt;+ personagens([])&lt;/div&gt;&lt;div&gt;+ add_personagem(Personagem)&lt;/div&gt;&lt;div&gt;+ remove_personagem(Personagem)&lt;/div&gt;" style="text;strokeColor=none;fillColor=none;align=left;verticalAlign=top;spacingLeft=4;spacingRight=4;overflow=hidden;rotatable=0;points=[[0,0.5],[1,0.5]];portConstraint=eastwest;whiteSpace=wrap;html=1;" parent="WCrjE4zs8tKZNm7IgE43-8" vertex="1">
          <mxGeometry y="98" width="210" height="172" as="geometry" />
        </mxCell>
        <mxCell id="WCrjE4zs8tKZNm7IgE43-12" value="batalha" style="swimlane;fontStyle=1;align=center;verticalAlign=top;childLayout=stackLayout;horizontal=1;startSize=26;horizontalStack=0;resizeParent=1;resizeParentMax=0;resizeLast=0;collapsible=1;marginBottom=0;whiteSpace=wrap;html=1;" parent="WIyWlLk6GJQsqaUBKTNV-1" vertex="1">
          <mxGeometry x="1270" y="-260" width="200" height="320" as="geometry" />
        </mxCell>
        <mxCell id="WCrjE4zs8tKZNm7IgE43-13" value="- jogador_1: Jogador&lt;div&gt;- jogador_2: Jogador&lt;/div&gt;&lt;div&gt;- party_1: int&lt;/div&gt;&lt;div&gt;- party_2: int&lt;/div&gt;&lt;div&gt;- vencedor: Jogador&lt;/div&gt;&lt;div&gt;&lt;br&gt;&lt;div&gt;&lt;br&gt;&lt;/div&gt;&lt;/div&gt;" style="text;strokeColor=none;fillColor=none;align=left;verticalAlign=top;spacingLeft=4;spacingRight=4;overflow=hidden;rotatable=0;points=[[0,0.5],[1,0.5]];portConstraint=eastwest;whiteSpace=wrap;html=1;" parent="WCrjE4zs8tKZNm7IgE43-12" vertex="1">
          <mxGeometry y="26" width="200" height="84" as="geometry" />
        </mxCell>
        <mxCell id="WCrjE4zs8tKZNm7IgE43-14" value="" style="line;strokeWidth=1;fillColor=none;align=left;verticalAlign=middle;spacingTop=-1;spacingLeft=3;spacingRight=3;rotatable=0;labelPosition=right;points=[];portConstraint=eastwest;strokeColor=inherit;" parent="WCrjE4zs8tKZNm7IgE43-12" vertex="1">
          <mxGeometry y="110" width="200" height="8" as="geometry" />
        </mxCell>
        <mxCell id="WCrjE4zs8tKZNm7IgE43-15" value="&lt;div&gt;+ &amp;lt;&amp;lt;create&amp;gt;&amp;gt;&lt;/div&gt;&lt;div&gt;&lt;span style=&quot;background-color: initial;&quot;&gt;__init__(jogador_1, jogador_2, party_1, party_2, vencedor)&lt;/span&gt;&lt;/div&gt;&lt;div&gt;&lt;span style=&quot;background-color: initial;&quot;&gt;+ jogador_1(): Jogador&lt;/span&gt;&lt;/div&gt;+ jogador_1(Jogador)&lt;div&gt;+ jogador_2(): Jogador&lt;/div&gt;+ jogador_2(Jogador)&lt;div&gt;+ party_1(): int&lt;/div&gt;&lt;div&gt;&lt;span style=&quot;background-color: initial;&quot;&gt;+ party_1(int&lt;/span&gt;&lt;span style=&quot;background-color: initial;&quot;&gt;)&lt;/span&gt;&lt;/div&gt;&lt;div&gt;+ party_2(): int&lt;/div&gt;&lt;div&gt;&lt;span style=&quot;background-color: initial;&quot;&gt;+ party_2(int&lt;/span&gt;&lt;span style=&quot;background-color: initial;&quot;&gt;)&lt;/span&gt;&lt;/div&gt;+ vencedor(): Jogador&lt;div&gt;+ vencedor(Jogador)&lt;/div&gt;&lt;div&gt;&lt;br&gt;&lt;div&gt;&lt;br&gt;&lt;/div&gt;&lt;/div&gt;&lt;div&gt;&lt;span style=&quot;background-color: initial;&quot;&gt;&lt;br&gt;&lt;/span&gt;&lt;/div&gt;&lt;div&gt;&lt;span style=&quot;background-color: initial;&quot;&gt;&lt;br&gt;&lt;/span&gt;&lt;/div&gt;" style="text;strokeColor=none;fillColor=none;align=left;verticalAlign=top;spacingLeft=4;spacingRight=4;overflow=hidden;rotatable=0;points=[[0,0.5],[1,0.5]];portConstraint=eastwest;whiteSpace=wrap;html=1;" parent="WCrjE4zs8tKZNm7IgE43-12" vertex="1">
          <mxGeometry y="118" width="200" height="202" as="geometry" />
        </mxCell>
        <mxCell id="WCrjE4zs8tKZNm7IgE43-20" value="Guerreiro" style="swimlane;fontStyle=1;align=center;verticalAlign=top;childLayout=stackLayout;horizontal=1;startSize=26;horizontalStack=0;resizeParent=1;resizeParentMax=0;resizeLast=0;collapsible=1;marginBottom=0;whiteSpace=wrap;html=1;" parent="WIyWlLk6GJQsqaUBKTNV-1" vertex="1">
          <mxGeometry x="40" y="520" width="240" height="310" as="geometry" />
        </mxCell>
        <mxCell id="WCrjE4zs8tKZNm7IgE43-21" value="- personagem: str&lt;div&gt;- classe: str&lt;br&gt;&lt;div&gt;- hp: float&lt;/div&gt;&lt;div&gt;- item: item&lt;/div&gt;&lt;/div&gt;&lt;div&gt;- dps: float&lt;/div&gt;" style="text;strokeColor=none;fillColor=none;align=left;verticalAlign=top;spacingLeft=4;spacingRight=4;overflow=hidden;rotatable=0;points=[[0,0.5],[1,0.5]];portConstraint=eastwest;whiteSpace=wrap;html=1;" parent="WCrjE4zs8tKZNm7IgE43-20" vertex="1">
          <mxGeometry y="26" width="240" height="94" as="geometry" />
        </mxCell>
        <mxCell id="WCrjE4zs8tKZNm7IgE43-22" value="" style="line;strokeWidth=1;fillColor=none;align=left;verticalAlign=middle;spacingTop=-1;spacingLeft=3;spacingRight=3;rotatable=0;labelPosition=right;points=[];portConstraint=eastwest;strokeColor=inherit;" parent="WCrjE4zs8tKZNm7IgE43-20" vertex="1">
          <mxGeometry y="120" width="240" height="8" as="geometry" />
        </mxCell>
        <mxCell id="WCrjE4zs8tKZNm7IgE43-23" value="&lt;div&gt;+ &amp;lt;&amp;lt;create&amp;gt;&amp;gt;&amp;nbsp; &amp;nbsp; &amp;nbsp; &amp;nbsp; &amp;nbsp; &amp;nbsp; &amp;nbsp; __init__(nome_personagem, hp, item, dps)&lt;/div&gt;+ personagem(): str&lt;div&gt;+ personagem(str)&lt;/div&gt;&lt;div&gt;+ classe(): str&lt;/div&gt;&lt;div&gt;+ hp(): float&lt;div&gt;+ hp(float)&lt;/div&gt;&lt;/div&gt;&lt;div&gt;+ item(): str&lt;div&gt;+ item(str)&lt;/div&gt;&lt;/div&gt;&lt;div&gt;+ dps(): float&lt;/div&gt;&lt;div&gt;+ dps(float)&lt;/div&gt;" style="text;strokeColor=none;fillColor=none;align=left;verticalAlign=top;spacingLeft=4;spacingRight=4;overflow=hidden;rotatable=0;points=[[0,0.5],[1,0.5]];portConstraint=eastwest;whiteSpace=wrap;html=1;" parent="WCrjE4zs8tKZNm7IgE43-20" vertex="1">
          <mxGeometry y="128" width="240" height="182" as="geometry" />
        </mxCell>
        <mxCell id="WCrjE4zs8tKZNm7IgE43-32" value="Mago" style="swimlane;fontStyle=1;align=center;verticalAlign=top;childLayout=stackLayout;horizontal=1;startSize=26;horizontalStack=0;resizeParent=1;resizeParentMax=0;resizeLast=0;collapsible=1;marginBottom=0;whiteSpace=wrap;html=1;" parent="WIyWlLk6GJQsqaUBKTNV-1" vertex="1">
          <mxGeometry x="380" y="520" width="240" height="340" as="geometry" />
        </mxCell>
        <mxCell id="WCrjE4zs8tKZNm7IgE43-33" value="- personagem: str&lt;div&gt;- classe: str&lt;br&gt;&lt;div&gt;- hp: float&lt;/div&gt;&lt;div&gt;- item: item&lt;/div&gt;&lt;/div&gt;&lt;div&gt;- dps: float&lt;/div&gt;&lt;div&gt;- mana: float&lt;/div&gt;" style="text;strokeColor=none;fillColor=none;align=left;verticalAlign=top;spacingLeft=4;spacingRight=4;overflow=hidden;rotatable=0;points=[[0,0.5],[1,0.5]];portConstraint=eastwest;whiteSpace=wrap;html=1;" parent="WCrjE4zs8tKZNm7IgE43-32" vertex="1">
          <mxGeometry y="26" width="240" height="94" as="geometry" />
        </mxCell>
        <mxCell id="WCrjE4zs8tKZNm7IgE43-34" value="" style="line;strokeWidth=1;fillColor=none;align=left;verticalAlign=middle;spacingTop=-1;spacingLeft=3;spacingRight=3;rotatable=0;labelPosition=right;points=[];portConstraint=eastwest;strokeColor=inherit;" parent="WCrjE4zs8tKZNm7IgE43-32" vertex="1">
          <mxGeometry y="120" width="240" height="8" as="geometry" />
        </mxCell>
        <mxCell id="WCrjE4zs8tKZNm7IgE43-35" value="&lt;div&gt;+ &amp;lt;&amp;lt;create&amp;gt;&amp;gt;&amp;nbsp; &amp;nbsp; &amp;nbsp; &amp;nbsp; &amp;nbsp; &amp;nbsp; &amp;nbsp; __init__(nome_personagem, hp, item, dps, mana)&lt;/div&gt;+ personagem(): str&lt;div&gt;+ personagem(str)&lt;/div&gt;&lt;div&gt;+ classe(): str&lt;/div&gt;&lt;div&gt;+ hp(): float&lt;div&gt;+ hp(float)&lt;/div&gt;&lt;/div&gt;&lt;div&gt;+ item(): str&lt;div&gt;+ item(str)&lt;/div&gt;&lt;/div&gt;&lt;div&gt;+ dps(): float&lt;/div&gt;&lt;div&gt;+ dps(float)&lt;/div&gt;&lt;div&gt;+ mana(): float&lt;/div&gt;&lt;div&gt;+ mana(float)&lt;/div&gt;" style="text;strokeColor=none;fillColor=none;align=left;verticalAlign=top;spacingLeft=4;spacingRight=4;overflow=hidden;rotatable=0;points=[[0,0.5],[1,0.5]];portConstraint=eastwest;whiteSpace=wrap;html=1;" parent="WCrjE4zs8tKZNm7IgE43-32" vertex="1">
          <mxGeometry y="128" width="240" height="212" as="geometry" />
        </mxCell>
        <mxCell id="WCrjE4zs8tKZNm7IgE43-36" value="Healer" style="swimlane;fontStyle=1;align=center;verticalAlign=top;childLayout=stackLayout;horizontal=1;startSize=26;horizontalStack=0;resizeParent=1;resizeParentMax=0;resizeLast=0;collapsible=1;marginBottom=0;whiteSpace=wrap;html=1;" parent="WIyWlLk6GJQsqaUBKTNV-1" vertex="1">
          <mxGeometry x="740" y="520" width="240" height="380" as="geometry" />
        </mxCell>
        <mxCell id="WCrjE4zs8tKZNm7IgE43-37" value="- personagem: str&lt;div&gt;- classe: str&lt;br&gt;&lt;div&gt;- hp: float&lt;/div&gt;&lt;div&gt;- item: item&lt;/div&gt;&lt;/div&gt;&lt;div&gt;- dps: float&lt;/div&gt;&lt;div&gt;- mana: float&lt;/div&gt;&lt;div&gt;- hps: float&lt;/div&gt;" style="text;strokeColor=none;fillColor=none;align=left;verticalAlign=top;spacingLeft=4;spacingRight=4;overflow=hidden;rotatable=0;points=[[0,0.5],[1,0.5]];portConstraint=eastwest;whiteSpace=wrap;html=1;" parent="WCrjE4zs8tKZNm7IgE43-36" vertex="1">
          <mxGeometry y="26" width="240" height="104" as="geometry" />
        </mxCell>
        <mxCell id="WCrjE4zs8tKZNm7IgE43-38" value="" style="line;strokeWidth=1;fillColor=none;align=left;verticalAlign=middle;spacingTop=-1;spacingLeft=3;spacingRight=3;rotatable=0;labelPosition=right;points=[];portConstraint=eastwest;strokeColor=inherit;" parent="WCrjE4zs8tKZNm7IgE43-36" vertex="1">
          <mxGeometry y="130" width="240" height="8" as="geometry" />
        </mxCell>
        <mxCell id="WCrjE4zs8tKZNm7IgE43-39" value="&lt;div&gt;+ &amp;lt;&amp;lt;create&amp;gt;&amp;gt;&amp;nbsp; &amp;nbsp; &amp;nbsp; &amp;nbsp; &amp;nbsp; &amp;nbsp; &amp;nbsp; __init__(nome_personagem, hp, item, dps, mana,hps)&lt;/div&gt;+ personagem(): str&lt;div&gt;+ personagem(str)&lt;/div&gt;&lt;div&gt;+ classe(): str&lt;/div&gt;&lt;div&gt;+ hp(): float&lt;div&gt;+ hp(float)&lt;/div&gt;&lt;/div&gt;&lt;div&gt;+ item(): str&lt;div&gt;+ item(str)&lt;/div&gt;&lt;/div&gt;&lt;div&gt;+ dps(): float&lt;/div&gt;&lt;div&gt;+ dps(float)&lt;/div&gt;&lt;div&gt;+ mana(): float&lt;/div&gt;&lt;div&gt;+ mana(float)&lt;/div&gt;&lt;div&gt;+ hps(float)&lt;/div&gt;&lt;div&gt;+ hps(): float&lt;/div&gt;" style="text;strokeColor=none;fillColor=none;align=left;verticalAlign=top;spacingLeft=4;spacingRight=4;overflow=hidden;rotatable=0;points=[[0,0.5],[1,0.5]];portConstraint=eastwest;whiteSpace=wrap;html=1;" parent="WCrjE4zs8tKZNm7IgE43-36" vertex="1">
          <mxGeometry y="138" width="240" height="242" as="geometry" />
        </mxCell>
        <mxCell id="WCrjE4zs8tKZNm7IgE43-41" value="Extends" style="endArrow=block;endSize=16;endFill=0;html=1;rounded=0;exitX=0.5;exitY=0;exitDx=0;exitDy=0;" parent="WIyWlLk6GJQsqaUBKTNV-1" source="WCrjE4zs8tKZNm7IgE43-32" edge="1">
          <mxGeometry x="0.0959" width="160" relative="1" as="geometry">
            <mxPoint x="510" y="520" as="sourcePoint" />
            <mxPoint x="500" y="447" as="targetPoint" />
            <mxPoint as="offset" />
          </mxGeometry>
        </mxCell>
        <mxCell id="WCrjE4zs8tKZNm7IgE43-42" value="Extends" style="endArrow=block;endSize=16;endFill=0;html=1;rounded=0;exitX=0.5;exitY=0;exitDx=0;exitDy=0;entryX=1.003;entryY=0.698;entryDx=0;entryDy=0;entryPerimeter=0;" parent="WIyWlLk6GJQsqaUBKTNV-1" target="WCrjE4zs8tKZNm7IgE43-3" edge="1">
          <mxGeometry x="0.0959" width="160" relative="1" as="geometry">
            <mxPoint x="859.4100000000001" y="520" as="sourcePoint" />
            <mxPoint x="859.4100000000001" y="447" as="targetPoint" />
            <mxPoint as="offset" />
          </mxGeometry>
        </mxCell>
        <mxCell id="WCrjE4zs8tKZNm7IgE43-43" value="Extends" style="endArrow=block;endSize=16;endFill=0;html=1;rounded=0;exitX=0.5;exitY=0;exitDx=0;exitDy=0;" parent="WIyWlLk6GJQsqaUBKTNV-1" edge="1">
          <mxGeometry x="0.0959" width="160" relative="1" as="geometry">
            <mxPoint x="159.41000000000003" y="520" as="sourcePoint" />
            <mxPoint x="380" y="420" as="targetPoint" />
            <mxPoint as="offset" />
          </mxGeometry>
        </mxCell>
        <mxCell id="wJj1Aa6lzcAyCWowP5yF-3" value="" style="endArrow=diamondThin;endFill=1;endSize=24;html=1;rounded=0;" parent="WIyWlLk6GJQsqaUBKTNV-1" source="WCrjE4zs8tKZNm7IgE43-10" edge="1">
          <mxGeometry width="160" relative="1" as="geometry">
            <mxPoint x="1080" y="281" as="sourcePoint" />
            <mxPoint x="1290" y="280" as="targetPoint" />
          </mxGeometry>
        </mxCell>
        <mxCell id="wJj1Aa6lzcAyCWowP5yF-4" value="" style="endArrow=open;endFill=1;endSize=12;html=1;rounded=0;exitX=1.001;exitY=-0.023;exitDx=0;exitDy=0;exitPerimeter=0;" parent="WIyWlLk6GJQsqaUBKTNV-1" source="WCrjE4zs8tKZNm7IgE43-3" edge="1">
          <mxGeometry width="160" relative="1" as="geometry">
            <mxPoint x="620" y="310" as="sourcePoint" />
            <mxPoint x="860" y="315" as="targetPoint" />
          </mxGeometry>
        </mxCell>
        <mxCell id="wJj1Aa6lzcAyCWowP5yF-6" value="" style="endArrow=open;endFill=1;endSize=12;html=1;rounded=0;exitX=0.447;exitY=0;exitDx=0;exitDy=0;exitPerimeter=0;entryX=0.458;entryY=0.995;entryDx=0;entryDy=0;entryPerimeter=0;" parent="WIyWlLk6GJQsqaUBKTNV-1" source="WCrjE4zs8tKZNm7IgE43-4" target="WCrjE4zs8tKZNm7IgE43-15" edge="1">
          <mxGeometry width="160" relative="1" as="geometry">
            <mxPoint x="1360" y="140" as="sourcePoint" />
            <mxPoint x="1600" y="140" as="targetPoint" />
          </mxGeometry>
        </mxCell>
      </root>
    </mxGraphModel>
  </diagram>
</mxfile>
